<svg width="50" height="50" viewBox="0 0 50 50" fill="none" xmlns="http://www.w3.org/2000/svg">
<circle cx="25" cy="25" r="25" fill="#FF9345" fill-opacity="0.69"/>
<path d="M31.0257 34.9998C30.1541 34.9998 28.9297 34.6846 27.0963 33.6605C24.8668 32.4105 23.1424 31.2565 20.925 29.0453C18.787 26.9091 17.7466 25.5261 16.2905 22.8769C14.6455 19.8858 14.926 18.3179 15.2394 17.6478C15.6127 16.8469 16.1637 16.3679 16.8759 15.8925C17.2804 15.6275 17.7085 15.4003 18.1547 15.2139C18.1994 15.1947 18.2409 15.1764 18.278 15.1599C18.499 15.0603 18.8339 14.9099 19.2581 15.0706C19.5412 15.1768 19.7939 15.3942 20.1895 15.7849C21.0009 16.5849 22.1096 18.3666 22.5186 19.2416C22.7932 19.8313 22.9749 20.2206 22.9754 20.6572C22.9754 21.1684 22.7182 21.5626 22.4061 21.9881C22.3476 22.068 22.2895 22.1443 22.2333 22.2184C21.8935 22.6649 21.8189 22.7939 21.868 23.0242C21.9676 23.4872 22.7101 24.8653 23.9305 26.0828C25.1508 27.3002 26.4895 27.9957 26.9543 28.0948C27.1945 28.1462 27.3263 28.0685 27.7871 27.7167C27.8532 27.6663 27.921 27.614 27.992 27.5618C28.468 27.2078 28.844 26.9573 29.3432 26.9573H29.3459C29.7803 26.9573 30.1523 27.1457 30.7685 27.4564C31.5722 27.8618 33.4079 28.956 34.2129 29.7681C34.6045 30.1627 34.8229 30.4145 34.9296 30.6971C35.0903 31.1225 34.939 31.456 34.8403 31.6793C34.8238 31.7163 34.8055 31.7569 34.7863 31.802C34.5983 32.2474 34.3698 32.6745 34.1035 33.0779C33.6289 33.7878 33.148 34.3373 32.3451 34.711C31.9329 34.9059 31.4817 35.0047 31.0257 34.9998Z" fill="white"/>
</svg>
